<svg width="192" height="48" viewBox="0 0 192 48" fill="none" xmlns="http://www.w3.org/2000/svg">
<path d="M11.6186 38.2954C10.4678 38.2954 9.51949 38.0391 8.7736 37.5267C8.04903 36.9929 7.46298 36.1495 7.01544 34.9964C6.58922 33.8221 6.21628 32.1779 5.89662 30.0641L5.80071 29.4555L9.60473 28.847L10.1482 32.0178C10.2334 32.5089 10.34 32.8826 10.4678 33.1388C10.5957 33.3737 10.7449 33.5338 10.9154 33.6192C11.1072 33.7046 11.3416 33.7473 11.6186 33.7473H11.8104L12.0662 36.0214L11.8104 38.2954H11.6186ZM0.75 42.0747L2.73193 41.5302C2.8811 41.5089 3.01963 41.4769 3.14749 41.4342C4.17042 41.1352 4.94827 40.8363 5.48105 40.5374C6.01383 40.2598 6.38677 39.8861 6.59988 39.4164C6.81299 38.968 6.86627 38.3594 6.75971 37.5907L5.48105 28.3986L9.47687 27.758L10.4039 34.484L10.5318 35.3488L10.7555 37.0463C10.99 38.6904 10.8941 40.0676 10.4678 41.1779C10.0416 42.3096 9.33835 43.2278 8.35804 43.9324C7.37773 44.6584 6.04579 45.2669 4.36222 45.758L3.78682 45.9181L1.8049 46.4947L0.75 42.0747Z" fill="#FAFAFA"/>
<path d="M11.6099 33.7473H17.236C18.0884 33.7473 18.6638 33.6299 18.9622 33.395C19.2605 33.1601 19.3778 32.7865 19.3138 32.274L18.9622 28.3345L23.0219 27.9502L23.3736 31.8897C23.4801 33.1281 23.2883 34.2384 22.7982 35.2206C22.3293 36.2028 21.6154 36.9609 20.6564 37.4947C19.6974 38.0285 18.5573 38.2954 17.236 38.2954H11.6099V33.7473ZM25.4194 38.2954C23.5867 38.2954 22.1482 37.7829 21.104 36.758C20.0597 35.7331 19.463 34.2278 19.3138 32.242L23.3736 31.9217C23.4162 32.4342 23.4908 32.8185 23.5973 33.0747C23.7252 33.331 23.917 33.5125 24.1727 33.6192C24.4498 33.7046 24.8653 33.7473 25.4194 33.7473L25.6752 36.0214L25.4194 38.2954ZM20.9122 24.6192H16.7245V20.9039H20.9122V24.6192ZM17.1081 20.9039V24.6192H12.8885V20.9039H17.1081Z" fill="#FAFAFA"/>
<path d="M25.0958 33.7473H30.7219C31.5743 33.7473 32.1497 33.6299 32.4481 33.395C32.7464 33.1601 32.8636 32.7865 32.7997 32.274L32.4481 28.3345L36.5078 27.9502L36.8595 31.8897C36.966 33.1281 36.7742 34.2384 36.2841 35.2206C35.8152 36.2028 35.1013 36.9609 34.1423 37.4947C33.1833 38.0285 32.0432 38.2954 30.7219 38.2954H25.0958V33.7473ZM38.9053 38.2954C37.0726 38.2954 35.6341 37.7829 34.5898 36.758C33.5456 35.7331 32.9489 34.2278 32.7997 32.242L36.8595 31.9217C36.9021 32.4342 36.9767 32.8185 37.0832 33.0747C37.2111 33.331 37.4029 33.5125 37.6586 33.6192C37.9357 33.7046 38.3512 33.7473 38.9053 33.7473L39.1611 36.0214L38.9053 38.2954ZM25.9908 44.669H29.6031V48H25.9908V44.669ZM23.4335 40.9217H28.0047V44.9573H23.4655L23.4335 40.9217ZM27.5252 40.9217H32.0965L32.0645 44.9573H27.5572L27.5252 40.9217Z" fill="#FAFAFA"/>
<path d="M38.5817 33.7473H39.7644C41.5119 33.7473 43.057 33.7046 44.3996 33.6192C45.7422 33.5125 47.0208 33.2883 48.2356 32.9466L55.7477 31.153L55.6198 32.21L49.0667 28.879C48.5552 28.6228 48.0331 28.4947 47.5003 28.4947C46.9676 28.4947 46.4561 28.6335 45.9659 28.911C45.4971 29.1886 45.1241 29.573 44.8471 30.0641L44.3037 31.089L40.7874 28.847L41.3947 27.726C42.098 26.4875 42.9717 25.548 44.016 24.9075C45.0815 24.2456 46.2217 23.9146 47.4364 23.9146C48.6511 23.8932 49.8552 24.2242 51.0486 24.9075L59.1042 29.5836L58.5608 34.8363L49.2585 37.3345C47.788 37.7402 46.2749 38.0071 44.7192 38.1352C43.1848 38.242 41.5332 38.2954 39.7644 38.2954H38.5817V33.7473ZM47.3725 44.669H50.9847V48H47.3725V44.669ZM44.8151 40.9217H49.3864V44.9573H44.8471L44.8151 40.9217ZM48.9069 40.9217H53.4781L53.4461 44.9573H48.9388L48.9069 40.9217Z" fill="#FAFAFA"/>
<path d="M76.0312 33.7473H83.7352C84.5663 33.7473 85.131 33.6299 85.4294 33.395C85.7278 33.1601 85.8556 32.7865 85.813 32.274L85.4614 28.3345L89.4891 27.9502L89.8408 31.8897C89.9686 33.1281 89.7875 34.2384 89.2973 35.2206C88.8285 36.2028 88.1039 36.9609 87.1236 37.4947C86.1646 38.0285 85.0351 38.2954 83.7352 38.2954H76.0312V33.7473ZM91.9186 38.2954C90.0859 38.2954 88.6474 37.7829 87.6031 36.758C86.5589 35.7331 85.9622 34.2384 85.813 32.274L89.8408 31.8897C89.9047 32.4021 89.99 32.7865 90.0965 33.0427C90.2244 33.2989 90.4162 33.4804 90.6719 33.5872C90.949 33.6939 91.3645 33.7473 91.9186 33.7473H92.2702L92.526 36.0214L92.2702 38.2954H91.9186ZM76.1911 38.2954C73.7616 38.2954 71.9288 38.274 70.6928 38.2313C69.4781 38.1886 68.5191 38.1032 67.8158 37.9751C67.1126 37.847 66.4413 37.6548 65.8019 37.3986L65.77 37.3665C64.2995 36.726 63.2872 35.7117 62.7331 34.3238C62.1791 32.9359 62.1364 31.3665 62.6053 29.6157L63.82 24.9395L67.7199 26.1246L66.4732 30.9609C66.3027 31.6014 66.2814 32.0819 66.4093 32.4021C66.5372 32.7224 66.8568 32.9893 67.3683 33.2028L67.4322 33.2349C67.7306 33.363 68.1248 33.4698 68.615 33.5552C69.1051 33.6192 69.9256 33.6726 71.0764 33.7153C72.2485 33.7367 73.9534 33.7473 76.1911 33.7473L76.3829 36.0214L76.1911 38.2954ZM80.3147 26.3808H76.1271V22.6655H80.3147V26.3808ZM76.5107 22.6655V26.3808H72.2911V22.6655H76.5107Z" fill="#FAFAFA"/>
<path d="M91.9321 33.7473H94.4574C95.2033 33.7473 95.7894 33.6619 96.2156 33.4911C96.6631 33.3203 96.9402 33.0214 97.0467 32.5943C97.1746 32.1673 97.1426 31.5801 96.9508 30.8327L95.6722 26.0605L99.5721 24.9075L100.851 29.6797C101.298 31.3665 101.309 32.8612 100.883 34.1637C100.457 35.4662 99.6786 36.4804 98.5492 37.2064C97.4197 37.9324 96.0558 38.2954 94.4574 38.2954H91.9321V33.7473ZM94.0738 18.0854H98.2615V22.2811H94.0738V18.0854Z" fill="#FAFAFA"/>
<path d="M105.134 16.2918L109.194 16.0996L110.025 38.2313L105.997 38.4235L105.134 16.2918Z" fill="#FAFAFA"/>
<path d="M121.535 38.2954C120.384 38.2954 119.436 38.0391 118.69 37.5267C117.965 36.9929 117.379 36.1495 116.932 34.9964C116.505 33.8221 116.133 32.1779 115.813 30.0641L115.717 29.4555L119.521 28.847L120.064 32.0178C120.15 32.5089 120.256 32.8826 120.384 33.1388C120.512 33.3737 120.661 33.5338 120.832 33.6192C121.023 33.7046 121.258 33.7473 121.535 33.7473H121.727L121.982 36.0214L121.727 38.2954H121.535ZM110.666 42.0747L112.648 41.5302C112.797 41.5089 112.936 41.4769 113.064 41.4342C114.087 41.1352 114.865 40.8363 115.397 40.5374C115.93 40.2598 116.303 39.8861 116.516 39.4164C116.729 38.968 116.783 38.3594 116.676 37.5907L115.397 28.3986L119.393 27.758L120.32 34.484L120.448 35.3488L120.672 37.0463C120.906 38.6904 120.81 40.0676 120.384 41.1779C119.958 42.3096 119.255 43.2278 118.274 43.9324C117.294 44.6584 115.962 45.2669 114.278 45.758L113.703 45.9181L111.721 46.4947L110.666 42.0747Z" fill="#FAFAFA"/>
<path d="M121.526 33.7473H127.632C129.06 33.7473 130.051 33.7046 130.605 33.6192C131.159 33.5338 131.51 33.3737 131.66 33.1388C131.83 32.8826 131.883 32.4448 131.819 31.8256L131.404 26.573C131.297 25.5053 131.01 24.6939 130.541 24.1388C130.072 23.5836 129.464 23.3274 128.719 23.3701C128.228 23.3701 127.813 23.5089 127.472 23.7865C127.152 24.0641 126.907 24.4164 126.737 24.8434C126.566 25.2705 126.502 25.7402 126.545 26.2527C126.587 26.7651 126.779 27.1708 127.12 27.4697C127.483 27.7687 127.983 27.9181 128.623 27.9181C129.539 27.9181 130.36 27.8861 131.084 27.8221C131.809 27.758 132.384 27.6833 132.81 27.5979L133.482 31.8256C133.226 31.8897 132.672 31.9537 131.819 32.0178C130.988 32.0819 129.923 32.1139 128.623 32.1139C126.896 32.1139 125.511 31.6228 124.467 30.6406C123.423 29.6584 122.89 28.3025 122.869 26.573C122.847 25.2918 123.039 24.1174 123.444 23.0498C123.87 21.9609 124.51 21.0854 125.362 20.4235C126.215 19.7616 127.269 19.3772 128.527 19.2705C129.742 19.1851 130.839 19.4306 131.819 20.0071C132.821 20.5623 133.631 21.3843 134.249 22.4733C134.867 23.5409 135.218 24.79 135.304 26.2206L135.719 31.7936C135.826 33.3096 135.655 34.5374 135.208 35.4769C134.76 36.4164 133.918 37.121 132.682 37.5907C131.468 38.0605 129.763 38.2954 127.568 38.2954H121.526V33.7473ZM126.769 12H130.956V16.1957H126.769V12Z" fill="#FAFAFA"/>
<path d="M171.589 13.5H162.536C156.819 13.5 153.96 13.5 152.741 15.4246C151.522 17.3492 152.683 20.0308 155.003 25.3941L160.66 38.4655C163.41 44.8218 164.785 48 167.062 48C168.05 48 168.869 47.4019 169.703 46.2056C170.156 45.5565 170.157 44.6958 169.796 43.9883L167.853 40.1733C167.43 39.3431 167.219 38.928 167.399 38.6221C167.58 38.3163 168.036 38.3163 168.949 38.3163H172.056C172.952 38.3163 173.764 37.7746 174.128 36.9342L176.21 32.1222C176.717 30.9501 176.205 29.5778 175.064 29.0541L167.398 25.5341C166.383 25.0682 166.707 23.5112 167.818 23.5112H178.45C179.35 23.5112 180.17 22.9647 180.517 22.1117C181.849 18.8437 182.324 16.909 181.384 15.4246C180.165 13.5 177.306 13.5 171.589 13.5Z" fill="#F97316"/>
<path d="M167.264 11.9964C165.178 12.0058 163.432 11.5312 161.882 10.3512C160.55 9.33638 159.752 7.95279 159.311 6.32274C159.1 5.54072 158.962 4.74428 159.009 3.92193C159.023 3.67158 159.101 3.53884 159.356 3.54532C160.971 3.58541 162.501 3.92697 163.828 4.9596C163.975 5.07432 164.009 5.0028 164.044 4.88878C164.108 4.67852 164.156 4.46249 164.217 4.25102C164.554 3.0883 165.206 2.11904 165.931 1.19443C166.242 0.79766 166.583 0.43041 166.937 0.0756409C167.037 -0.024693 167.101 -0.0258935 167.2 0.0761206C168.415 1.33413 169.496 2.68456 169.972 4.45505C169.987 4.51289 169.997 4.57218 170.009 4.63099C170.092 5.06257 170.136 5.07482 170.467 4.82157C171.166 4.28822 171.968 4.00162 172.798 3.79856C173.45 3.63917 174.105 3.50164 174.782 3.54196C175.012 3.55564 175.124 3.64517 175.125 3.89121C175.137 6.18931 174.465 8.21806 172.861 9.81957C171.788 10.8903 170.482 11.5396 169.009 11.8087C168.365 11.9268 167.723 12.0197 167.264 11.9964Z" fill="#22C55E"/>
</svg>
