<svg width="1440" height="802" viewBox="0 0 1440 802" fill="none" xmlns="http://www.w3.org/2000/svg">
<path d="M259.5 131L261.476 131.307L259.5 131ZM376.5 498L374.502 497.909L376.5 498ZM280 351.5L278.188 350.654L280 351.5ZM376.5 345L374.731 345.934L376.5 345ZM115.5 396.5L113.633 397.217L115.5 396.5ZM259.5 257L261.499 256.928L259.5 257ZM280 548.5L281.431 547.103L280 548.5ZM720 800L718.146 800.751C718.458 801.521 719.213 802.018 720.043 802C720.874 801.982 721.606 801.452 721.884 800.67L720 800ZM657.5 742L656.67 743.82L657.5 742ZM272.011 425.5L271.517 423.562L272.011 425.5ZM147.5 570L149.392 569.352L147.5 570ZM157.5 131L157.649 132.994L157.5 131ZM91.5001 178.5L93.4218 179.054H93.4218L91.5001 178.5ZM157.5 251.5L157.954 249.552L157.5 251.5ZM1282.06 24.0009L1280.52 22.7298L1282.06 24.0009ZM1440 26.0009C1441.1 26.0009 1442 25.1054 1442 24.0009C1442 22.8963 1441.1 22.0009 1440 22.0009V26.0009ZM1355.5 527L1353.51 526.858L1355.5 527ZM1285 582.5L1284.57 580.547L1285 582.5ZM1145.5 393.5L1143.77 392.498L1145.5 393.5ZM1217 315.5L1215.46 316.771V316.771L1217 315.5ZM1265.5 147.5L1266.48 145.754L1265.5 147.5ZM1292.5 468.5L1292.22 470.481L1292.5 468.5ZM780.838 741.994L780.01 740.173L780.838 741.994ZM1331.5 349L1329.96 350.276L1331.5 349ZM1176.5 588.5L1178.31 587.641V587.641L1176.5 588.5ZM1190.5 181L1188.82 179.922L1190.5 181ZM1200 273.5L1199.41 275.41L1200 273.5ZM261.476 131.307C265.81 103.398 254.717 82.497 234.988 67.0279C215.377 51.6508 187.202 41.5905 157.035 34.9725C96.663 21.7279 27.3689 22.0829 0 22.0829V26.0829C27.4318 26.0829 96.2962 25.7426 156.178 38.8796C186.138 45.4523 213.614 55.352 232.52 70.1757C251.308 84.9074 261.599 104.448 257.524 130.693L261.476 131.307ZM378.498 498.091C379.434 477.505 370.173 461.539 357.121 448.094C344.139 434.722 327.15 423.6 312.437 412.833L310.075 416.061C325.044 427.016 341.579 437.828 354.251 450.88C366.851 463.86 375.371 478.809 374.502 497.909L378.498 498.091ZM312.437 412.833C300.112 403.812 289.425 395.076 283.33 385.355C280.307 380.535 278.445 375.517 278.061 370.136C277.677 364.756 278.76 358.887 281.812 352.346L278.188 350.654C274.893 357.715 273.632 364.262 274.071 370.42C274.511 376.576 276.64 382.217 279.941 387.48C286.492 397.928 297.781 407.064 310.075 416.061L312.437 412.833ZM281.812 352.346C290.733 333.23 309.314 322.807 328.081 321.613C346.852 320.418 365.504 328.46 374.731 345.934L378.268 344.066C368.161 324.925 347.835 316.347 327.827 317.621C307.814 318.895 287.812 330.03 278.188 350.654L281.812 352.346ZM117.367 395.783C114.25 387.661 114.153 380.731 116.206 374.621C118.273 368.469 122.591 362.943 128.664 357.795C140.877 347.442 159.634 339.059 179.509 330.376C199.232 321.76 219.988 312.875 235.616 301.54C251.285 290.175 262.189 276.06 261.499 256.928L257.501 257.072C258.123 274.299 248.425 287.308 233.267 298.302C218.067 309.327 197.771 318.034 177.908 326.711C158.196 335.322 138.831 343.933 126.078 354.744C119.668 360.177 114.791 366.274 112.415 373.347C110.024 380.461 110.232 388.355 113.633 397.217L117.367 395.783ZM281.431 547.103C271.149 536.572 265.064 528.78 262.15 523.109C260.695 520.277 260.109 518.121 260.084 516.512C260.06 514.983 260.536 513.914 261.378 513.079C262.28 512.183 263.741 511.424 265.884 510.876C268.011 510.332 270.657 510.035 273.763 509.947C279.98 509.771 287.737 510.44 296.273 511.413C313.206 513.341 333.177 516.473 348.953 516.103C356.838 515.918 363.968 514.862 369.257 512.162C371.93 510.797 374.183 508.988 375.804 506.617C377.43 504.238 378.347 501.397 378.498 498.091L374.502 497.909C374.381 500.557 373.663 502.661 372.501 504.36C371.334 506.068 369.646 507.472 367.438 508.599C362.964 510.883 356.568 511.923 348.859 512.104C333.447 512.466 313.96 509.401 296.726 507.438C288.179 506.465 280.176 505.764 273.65 505.948C270.386 506.041 267.415 506.356 264.893 507.001C262.385 507.642 260.163 508.649 258.56 510.24C256.896 511.892 256.045 514.031 256.085 516.575C256.123 519.039 256.991 521.822 258.592 524.937C261.79 531.161 268.226 539.303 278.569 549.897L281.431 547.103ZM720 800C721.854 799.249 721.853 799.248 721.853 799.247C721.853 799.246 721.852 799.245 721.852 799.244C721.851 799.242 721.85 799.239 721.848 799.236C721.845 799.229 721.842 799.22 721.837 799.209C721.828 799.187 721.815 799.156 721.799 799.117C721.766 799.039 721.718 798.927 721.654 798.782C721.527 798.493 721.337 798.074 721.08 797.539C720.567 796.467 719.786 794.927 718.7 793.017C716.53 789.198 713.139 783.898 708.237 777.913C698.428 765.941 682.568 751.233 658.33 740.18L656.67 743.82C680.27 754.582 695.66 768.874 705.142 780.448C709.885 786.237 713.15 791.346 715.223 794.994C716.259 796.817 716.997 798.274 717.473 799.267C717.711 799.763 717.883 800.143 717.993 800.394C718.049 800.52 718.089 800.614 718.114 800.674C718.127 800.704 718.136 800.725 718.141 800.738C718.144 800.745 718.146 800.749 718.146 800.751C718.147 800.752 718.147 800.753 718.147 800.753L718.147 800.752C718.147 800.752 718.146 800.751 720 800ZM374.731 345.934C379.099 354.205 379.846 361.486 378.069 367.976C376.278 374.517 371.851 380.509 365.401 386.013C352.456 397.059 331.911 405.68 310.642 412.543L311.87 416.35C333.199 409.468 354.406 400.653 367.997 389.055C374.815 383.238 379.853 376.606 381.927 369.032C384.016 361.407 383.029 353.082 378.268 344.066L374.731 345.934ZM310.642 412.543C297.18 416.887 283.535 420.494 271.517 423.562L272.506 427.438C284.541 424.366 298.285 420.734 311.87 416.35L310.642 412.543ZM271.517 423.562C240.401 431.504 207.316 439.133 179.19 437.408C165.161 436.547 152.494 433.363 141.965 426.826C131.467 420.307 122.967 410.377 117.367 395.783L113.633 397.217C119.522 412.564 128.563 423.212 139.855 430.224C151.116 437.216 164.487 440.514 178.945 441.401C207.794 443.17 241.474 435.358 272.506 427.438L271.517 423.562ZM658.33 740.18C572.469 701.026 453.206 683.056 351.596 662.396C300.694 652.047 254.231 641.031 218.372 626.378C182.424 611.69 157.686 593.567 149.392 569.352L145.608 570.648C154.498 596.604 180.705 615.309 216.859 630.081C253.1 644.89 299.893 655.966 350.799 666.316C452.801 687.055 571.354 704.914 656.67 743.82L658.33 740.18ZM149.392 569.352C148.7 567.332 148.702 565.782 149.096 564.564C149.49 563.348 150.352 562.228 151.813 561.206C154.827 559.098 159.989 557.688 166.916 556.913C180.668 555.375 200.009 556.461 219.117 557.852C238.095 559.233 256.874 560.92 269.146 560.484C272.23 560.374 274.971 560.13 277.24 559.695C279.459 559.27 281.455 558.623 282.862 557.56C283.593 557.008 284.222 556.301 284.598 555.406C284.98 554.496 285.043 553.53 284.852 552.571C284.492 550.757 283.221 548.936 281.431 547.103L278.569 549.897C280.206 551.574 280.8 552.703 280.929 553.351C280.983 553.625 280.947 553.769 280.91 553.857C280.867 553.959 280.757 554.137 280.452 554.368C279.787 554.87 278.525 555.376 276.487 555.766C274.5 556.147 271.986 556.381 269.004 556.487C257.016 556.913 238.572 555.258 219.408 553.862C200.374 552.477 180.655 551.352 166.471 552.938C159.431 553.725 153.405 555.211 149.52 557.929C147.531 559.32 146.015 561.096 145.291 563.332C144.567 565.567 144.71 568.026 145.608 570.648L149.392 569.352ZM261.499 256.928C260.738 235.848 254.459 214.41 244.691 195.283L241.129 197.102C250.675 215.794 256.764 236.664 257.501 257.072L261.499 256.928ZM244.691 195.283C234.77 175.855 221.203 158.724 206.025 146.727C190.863 134.744 173.932 127.766 157.351 129.005L157.649 132.994C172.901 131.854 188.864 138.263 203.545 149.865C218.208 161.455 231.43 178.11 241.129 197.102L244.691 195.283ZM157.351 129.005C140.249 130.284 125.713 134.062 114.218 141.815C102.676 149.6 94.3882 161.266 89.5784 177.946L93.4218 179.054C98.0136 163.131 105.808 152.312 116.455 145.131C127.151 137.916 140.914 134.246 157.649 132.994L157.351 129.005ZM89.5784 177.946C86.557 188.423 86.6246 197.858 89.1728 206.265C91.7178 214.662 96.6987 221.909 103.313 228.089C116.499 240.407 136.316 248.615 157.046 253.448L157.954 249.552C137.534 244.792 118.497 236.799 106.044 225.166C99.8387 219.369 95.3035 212.702 93.0008 205.105C90.7013 197.518 90.5895 188.876 93.4218 179.054L89.5784 177.946ZM157.046 253.448C179.666 258.721 197.781 254.435 212.194 243.758C226.519 233.146 237.003 216.36 244.767 196.935L241.053 195.45C233.424 214.538 223.297 230.555 209.813 240.544C196.416 250.468 179.523 254.58 157.954 249.552L157.046 253.448ZM244.767 196.935C252.792 176.859 257.988 153.772 261.476 131.307L257.524 130.693C254.059 153.008 248.922 175.766 241.053 195.45L244.767 196.935ZM1283.61 25.272C1293.1 13.7419 1304.01 8.02953 1315.91 5.87953C1327.88 3.71625 1340.94 5.14273 1354.7 8.09899C1368.52 11.0658 1382.69 15.4838 1397.15 19.2401C1411.51 22.97 1426 26.0009 1440 26.0009V22.0009C1426.53 22.0009 1412.44 19.0793 1398.15 15.3686C1383.97 11.6844 1369.44 7.17377 1355.54 4.18817C1341.59 1.19199 1327.93 -0.357744 1315.19 1.9433C1302.39 4.25762 1290.63 10.4502 1280.52 22.7298L1283.61 25.272ZM1353.51 526.858C1352.8 536.777 1350.58 544.465 1347.12 550.571C1343.66 556.664 1338.91 561.285 1333 564.991C1321.06 572.479 1304.55 576.152 1284.57 580.547L1285.43 584.453C1305.17 580.11 1322.47 576.316 1335.13 568.38C1341.52 564.374 1346.77 559.294 1350.6 552.544C1354.42 545.805 1356.76 537.506 1357.49 527.141L1353.51 526.858ZM1284.57 580.547C1266.21 584.586 1246.63 580.396 1227.85 570.521C1209.08 560.647 1191.23 545.15 1176.44 526.814L1173.33 529.325C1188.39 548.001 1206.65 563.887 1225.99 574.061C1245.33 584.233 1265.89 588.753 1285.43 584.453L1284.57 580.547ZM1176.44 526.814C1159.88 506.285 1147.25 482.301 1141.44 458.864C1135.63 435.416 1136.69 412.709 1147.23 394.502L1143.77 392.498C1132.54 411.888 1131.59 435.748 1137.55 459.827C1143.53 483.917 1156.46 508.419 1173.33 529.325L1176.44 526.814ZM1218.54 314.229C1209.51 303.252 1209.03 290.736 1213.5 277.207L1209.7 275.951C1204.95 290.329 1205.28 304.41 1215.46 316.771L1218.54 314.229ZM1213.5 277.207C1217.46 265.233 1225.26 252.655 1234.24 240.064C1238.72 233.781 1243.47 227.533 1248.14 221.38C1252.81 215.237 1257.41 209.184 1261.57 203.332C1269.84 191.7 1276.57 180.568 1278.54 170.77C1279.53 165.813 1279.33 161.072 1277.39 156.754C1275.44 152.432 1271.85 148.757 1266.48 145.754L1264.52 149.246C1269.35 151.939 1272.23 155.037 1273.74 158.395C1275.26 161.758 1275.49 165.608 1274.62 169.984C1272.84 178.854 1266.59 189.362 1258.31 201.015C1254.2 206.805 1249.64 212.805 1244.96 218.96C1240.29 225.105 1235.51 231.401 1230.98 237.741C1221.96 250.394 1213.86 263.377 1209.7 275.951L1213.5 277.207ZM1292.22 470.481C1312.68 473.339 1328.68 477.6 1339.21 485.987C1349.56 494.221 1354.94 506.691 1353.51 526.858L1357.49 527.141C1358.99 506.046 1353.35 492.128 1341.71 482.858C1330.25 473.741 1313.29 469.384 1292.78 466.519L1292.22 470.481ZM720 800C721.884 800.67 721.884 800.671 721.884 800.671C721.884 800.671 721.884 800.672 721.884 800.672C721.884 800.672 721.884 800.672 721.884 800.671C721.885 800.669 721.886 800.665 721.889 800.658C721.893 800.646 721.901 800.625 721.912 800.595C721.934 800.536 721.969 800.443 722.018 800.318C722.116 800.068 722.269 799.69 722.483 799.195C722.91 798.206 723.578 796.752 724.532 794.933C726.438 791.293 729.482 786.192 734.005 780.411C743.047 768.855 758.01 754.573 781.666 743.814L780.01 740.173C755.694 751.232 740.239 765.953 730.855 777.946C726.165 783.94 722.993 789.249 720.988 793.077C719.986 794.991 719.274 796.535 718.81 797.61C718.578 798.147 718.408 798.568 718.294 798.859C718.237 799.004 718.194 799.117 718.165 799.196C718.15 799.236 718.138 799.267 718.13 799.289C718.126 799.3 718.123 799.309 718.121 799.316C718.119 799.32 718.118 799.322 718.117 799.325C718.117 799.326 718.117 799.327 718.116 799.328C718.116 799.329 718.116 799.33 720 800ZM1147.23 394.502C1156.09 379.201 1174.52 372.043 1197.29 369.351C1219.97 366.669 1246.33 368.495 1270.24 370.567C1282.15 371.6 1293.48 372.695 1303.34 373.303C1313.18 373.908 1321.74 374.042 1328.1 373.1C1331.28 372.63 1334.06 371.871 1336.22 370.665C1338.41 369.437 1340.06 367.679 1340.67 365.255C1341.26 362.898 1340.77 360.268 1339.5 357.445C1338.23 354.61 1336.08 351.388 1333.04 347.724L1329.96 350.276C1332.88 353.8 1334.78 356.709 1335.85 359.086C1336.93 361.474 1337.08 363.135 1336.79 364.284C1336.52 365.367 1335.77 366.331 1334.27 367.174C1332.72 368.041 1330.48 368.705 1327.52 369.143C1321.6 370.019 1313.41 369.915 1303.59 369.31C1293.79 368.707 1282.56 367.62 1270.58 366.582C1246.71 364.513 1219.97 362.642 1196.82 365.379C1173.75 368.106 1153.62 375.482 1143.77 392.498L1147.23 394.502ZM1333.04 347.724C1317.46 328.927 1295.16 329.691 1274.14 330.29C1252.75 330.901 1232.63 331.348 1218.54 314.229L1215.46 316.771C1230.97 335.626 1253.24 334.889 1274.26 334.289C1295.66 333.678 1315.81 333.205 1329.96 350.276L1333.04 347.724ZM781.666 743.814C824.269 724.438 875.248 715.755 926.65 711.017C952.338 708.65 978.09 707.271 1002.92 706.025C1027.73 704.78 1051.64 703.667 1073.58 701.832C1095.51 699.998 1115.56 697.435 1132.64 693.27C1149.7 689.11 1163.98 683.314 1174.25 674.904C1184.6 666.434 1190.83 655.362 1191.79 640.925C1192.75 626.588 1188.5 609.083 1178.31 587.641L1174.69 589.359C1184.75 610.496 1188.69 627.282 1187.8 640.659C1186.91 653.937 1181.26 664.004 1171.72 671.809C1162.11 679.674 1148.5 685.287 1131.69 689.384C1114.91 693.476 1095.1 696.018 1073.25 697.846C1051.39 699.674 1027.56 700.783 1002.72 702.03C977.889 703.276 952.063 704.658 926.283 707.034C874.75 711.784 823.233 720.515 780.01 740.173L781.666 743.814ZM1178.31 587.641C1167.97 565.898 1168.87 545.963 1176.7 528.903L1173.07 527.235C1164.74 545.382 1163.85 566.557 1174.69 589.359L1178.31 587.641ZM1176.7 528.903C1185.76 509.158 1204.2 493.079 1225.71 482.658C1247.23 472.239 1271.58 467.597 1292.22 470.481L1292.78 466.519C1271.2 463.506 1246.06 468.362 1223.97 479.058C1201.89 489.753 1182.62 506.407 1173.07 527.235L1176.7 528.903ZM1266.48 145.754C1250.68 136.934 1235.51 138.656 1222.19 146.043C1208.97 153.372 1197.55 166.266 1188.82 179.922L1192.18 182.077C1200.73 168.709 1211.72 156.422 1224.13 149.541C1236.43 142.718 1250.12 141.203 1264.52 149.246L1266.48 145.754ZM1188.82 179.922C1178.83 195.531 1172.62 216.424 1173.22 234.849C1173.83 253.273 1181.34 269.801 1199.41 275.41L1200.59 271.59C1184.82 266.694 1177.8 252.268 1177.22 234.717C1176.65 217.166 1182.6 197.062 1192.18 182.077L1188.82 179.922ZM1199.41 275.41C1203.62 276.719 1207.54 277.754 1211.18 278.535L1212.02 274.624C1208.51 273.872 1204.71 272.868 1200.59 271.59L1199.41 275.41ZM1211.18 278.535C1221.97 280.847 1230.44 280.935 1237.18 279.156C1243.98 277.361 1248.88 273.701 1252.54 268.795C1256.16 263.941 1258.53 257.914 1260.4 251.405C1262.28 244.912 1263.72 237.708 1265.37 230.56C1268.7 216.109 1272.93 201.568 1283.3 190.584C1293.59 179.687 1310.22 172 1339 172V168C1309.48 168 1291.66 175.909 1280.39 187.838C1269.21 199.679 1264.8 215.193 1261.47 229.661C1259.79 236.972 1258.39 243.943 1256.56 250.296C1254.73 256.631 1252.52 262.119 1249.33 266.404C1246.17 270.637 1242.02 273.741 1236.16 275.288C1230.24 276.851 1222.46 276.859 1212.02 274.624L1211.18 278.535ZM1339 172C1342.89 172 1346.04 171.629 1348.48 170.842C1350.93 170.053 1352.84 168.78 1353.91 166.862C1354.98 164.942 1355 162.748 1354.46 160.559C1353.92 158.382 1352.78 156.022 1351.26 153.547C1348.21 148.596 1343.36 142.759 1337.66 136.363C1331.95 129.969 1325.22 122.839 1318.46 115.408C1304.84 100.441 1290.87 84.0227 1282.97 68.1454C1275.08 52.2866 1273.5 37.5446 1283.61 25.272L1280.52 22.7298C1268.94 36.7954 1271.21 53.4724 1279.39 69.9268C1287.57 86.3628 1301.9 103.152 1315.5 118.1C1322.35 125.627 1328.96 132.631 1334.67 139.026C1340.37 145.417 1345.01 151.023 1347.85 155.643C1349.27 157.955 1350.18 159.913 1350.58 161.522C1350.97 163.119 1350.83 164.178 1350.42 164.912C1350 165.648 1349.12 166.432 1347.25 167.036C1345.37 167.642 1342.68 168 1339 168V172Z" fill="url(#paint0_linear_397_8632)"/>
<defs>
<linearGradient id="paint0_linear_397_8632" x1="720" y1="2.83667" x2="720" y2="800" gradientUnits="userSpaceOnUse">
<stop stop-color="#F97316"/>
<stop offset="0.635" stop-color="#22C55E"/>
<stop offset="1" stop-color="#3F3F46"/>
</linearGradient>
</defs>
</svg>
