<svg width="20" height="20" viewBox="0 0 20 20" fill="none" xmlns="http://www.w3.org/2000/svg">
<g id="Remix-icon-TimeLine">
<path id="Vector" d="M5.80331 2.5H14.1964C14.4036 3.93501 15.6333 5 17.0833 5C17.36 5 17.6354 4.9606 17.9011 4.88297C17.7476 6.36988 16.4947 7.5 14.9999 7.5H4.99989C3.50508 7.5 2.25224 6.36988 2.09866 4.88297C2.36436 4.9606 2.63976 5 2.91656 5C4.36643 5 5.59618 3.93501 5.80331 2.5ZM14.0828 5.54801C13.6158 5.14367 13.2516 4.68322 12.99 4.16667H7.00979C6.74819 4.68322 6.38395 5.14367 5.91706 5.54801C5.79917 5.65011 5.67867 5.74522 5.55557 5.83333H14.4442C14.3212 5.74522 14.2007 5.65011 14.0828 5.54801ZM17.9166 9.58375C18.3646 9.58375 18.7851 9.46592 19.1487 9.2595C19.1605 9.36592 19.1666 9.47417 19.1666 9.58375C19.1666 10.7472 18.4853 11.7516 17.4999 12.2197V17.5H11.6666V15.8333C11.6666 14.9128 10.9204 14.1667 9.99992 14.1667C9.07942 14.1667 8.33325 14.9128 8.33325 15.8333V17.5H2.49992V12.2197C1.51453 11.7516 0.833252 10.7472 0.833252 9.58375C0.833252 9.47417 0.839294 9.36592 0.851069 9.2595C1.21474 9.46592 1.63523 9.58375 2.08325 9.58375C3.0086 9.58375 3.81653 9.081 4.24879 8.33375H15.751C16.1833 9.081 16.9913 9.58375 17.9166 9.58375ZM15.8026 10.6747C15.4796 10.4843 15.1913 10.2596 14.9376 10.0004H5.06224C4.8086 10.2596 4.52028 10.4843 4.19728 10.6747C4.02825 10.7744 3.85561 10.8611 3.67935 10.9348L4.16658 11.1663V15.8333H6.66658C6.66658 14.9128 6.99202 14.1272 7.64289 13.4763C8.29377 12.8254 9.07942 12.5 9.99992 12.5C10.9204 12.5 11.7061 12.8254 12.3569 13.4763C13.0078 14.1272 13.3333 14.9128 13.3333 15.8333H15.8333V11.1663L16.3205 10.9348C16.1443 10.8611 15.9716 10.7744 15.8026 10.6747Z" fill="white"/>
</g>
</svg>
