<svg width="20" height="20" viewBox="0 0 20 20" fill="none" xmlns="http://www.w3.org/2000/svg">
<path d="M13.3334 10.8333V4.16667H5.00008V10.8333C5.00008 11.7538 5.74627 12.5 6.66675 12.5H11.6667C12.5872 12.5 13.3334 11.7538 13.3334 10.8333ZM4.16675 2.5H16.6667C17.5872 2.5 18.3334 3.24619 18.3334 4.16667V6.66667C18.3334 7.58714 17.5872 8.33333 16.6667 8.33333H15.0001V10.8333C15.0001 12.6742 13.5077 14.1667 11.6667 14.1667H6.66675C4.8258 14.1667 3.33341 12.6742 3.33341 10.8333V3.33333C3.33341 2.8731 3.70651 2.5 4.16675 2.5ZM15.0001 4.16667V6.66667H16.6667V4.16667H15.0001ZM1.66675 15.8333H16.6667V17.5H1.66675V15.8333Z" fill="white"/>
</svg>
