<svg width="20" height="20" viewBox="0 0 20 20" fill="none" xmlns="http://www.w3.org/2000/svg">
<path d="M10 19.1667C13.4517 19.1667 16.25 16.3684 16.25 12.9167C16.25 12.1954 16.0581 11.5027 15.8333 10.858C14.4444 12.2304 13.3889 12.9167 12.6667 12.9167C15.9962 7.08333 14.1667 4.58333 9.16667 1.25C9.58333 5.41626 6.83669 7.31146 5.71816 8.36383C4.50655 9.50375 3.75 11.1218 3.75 12.9167C3.75 16.3684 6.54822 19.1667 10 19.1667ZM10.5912 4.36248C13.2926 6.6544 13.3055 8.43525 11.2192 12.0905C10.585 13.2016 11.3873 14.5833 12.6667 14.5833C13.2403 14.5833 13.8201 14.416 14.4324 14.0876C13.9149 16.0517 12.1266 17.5 10 17.5C7.46869 17.5 5.41667 15.448 5.41667 12.9167C5.41667 11.634 5.94399 10.4397 6.86021 9.57767C6.96522 9.47892 7.49791 9.00675 7.52064 8.98633C7.87385 8.66842 8.16483 8.38858 8.45242 8.08064C9.47775 6.98277 10.2142 5.76359 10.5912 4.36248Z" fill="white"/>
</svg>
