<svg width="20" height="20" viewBox="0 0 20 20" fill="none" xmlns="http://www.w3.org/2000/svg">
<g id="Remix-icon-TimeLine">
<path id="Vector" d="M11.8902 10.1222L11.1788 10.8335L17.0714 16.726L15.8929 17.9045L10.0003 12.012L4.1078 17.9045L2.92929 16.726L10.7116 8.94369C10.2219 7.72959 10.7281 5.98098 12.0628 4.6463C13.6899 3.01912 15.9324 2.62339 17.0714 3.76242C18.2104 4.90145 17.8148 7.14391 16.1875 8.7711C14.8528 10.1058 13.1043 10.6119 11.8902 10.1222ZM3.51854 3.17316L9.1165 8.7711L6.75945 11.1281L3.51854 7.88721C2.2168 6.58546 2.2168 4.47491 3.51854 3.17316ZM15.009 7.59258C16.0568 6.5449 16.2728 5.32075 15.8929 4.94093C15.5131 4.56111 14.2889 4.77714 13.2413 5.82481C12.1936 6.87249 11.9776 8.09664 12.3574 8.47643C12.7372 8.85627 13.9613 8.64027 15.009 7.59258Z" fill="white"/>
</g>
</svg>
