<svg width="198" height="41" viewBox="0 0 198 41" fill="none" xmlns="http://www.w3.org/2000/svg">
    <path d="M0.572771 13.8382C0.572738 13.751 0.583331 13.6635 0.611877 13.5811C0.881354 12.8036 1.52034 12.5075 2.29187 12.3585C2.78266 12.2637 3.27345 12.2645 3.76695 12.2647C10.2207 12.2674 16.6742 12.2664 23.1279 12.279C23.8571 12.2804 24.5856 12.3591 25.2266 12.775C25.7369 13.1063 25.9942 13.6979 25.7474 14.3426C25.4031 15.2422 24.9953 16.1144 24.6071 16.9952C24.3043 17.6818 23.9924 18.3643 23.6962 19.0535C23.295 19.987 22.5557 20.4082 21.579 20.4146C19.2842 20.4298 16.9894 20.4195 14.6946 20.4195C14.4715 20.4195 14.2656 20.4679 14.1458 20.6752C14.0466 20.8467 14.0838 21.0252 14.1772 21.1892C14.2588 21.3326 14.4059 21.3997 14.5478 21.4623C15.2187 21.7583 15.9111 22.0012 16.5792 22.3053C17.629 22.7831 18.6932 23.2307 19.667 23.8585C20.1704 24.1832 20.5082 24.6319 20.6653 25.2124C20.7649 25.5813 20.7294 25.9457 20.5809 26.29C19.9996 27.6377 19.4102 28.9819 18.8203 30.326C18.4805 31.1003 17.8471 31.4861 17.0495 31.659C16.1408 31.8559 15.2216 31.7125 14.3083 31.7563C14.1925 31.7619 14.0762 31.7578 13.9603 31.7571C13.284 31.7526 13.123 32.1641 13.4056 32.72C13.6508 33.2023 13.9349 33.665 14.2075 34.1331C14.6356 34.8685 15.0363 35.6138 15.2726 36.4401C15.5773 37.5068 15.4757 38.5015 14.7756 39.3872C14.1718 40.1507 13.0671 40.4959 12.2554 39.9671C11.8041 39.6731 11.5407 39.2338 11.3238 38.7764C10.8345 37.7444 10.3796 36.6962 9.92139 35.6498C9.22184 34.0521 8.58665 32.4248 7.86306 30.8396C6.40272 27.6402 5.0009 24.4152 3.6272 21.1791C2.6745 18.9347 1.64253 16.7252 0.726465 14.4657C0.686634 14.3674 0.654823 14.2659 0.623299 14.1643C0.590533 14.0587 0.572812 13.9488 0.572771 13.8382Z" fill="url(#paint0_linear_857_2050)"/>
    <path d="M13.8472 9.68749C12.0833 9.69505 10.6067 9.31184 9.29614 8.35895C8.16919 7.53941 7.49504 6.42215 7.1221 5.10582C6.94319 4.47431 6.82708 3.83116 6.86662 3.16709C6.87864 2.96492 6.94416 2.85773 7.15951 2.86296C8.52585 2.89533 9.8195 3.17116 10.9414 4.00503C11.066 4.09769 11.0947 4.03992 11.1242 3.94785C11.1787 3.77805 11.2186 3.6036 11.2703 3.43283C11.5555 2.4939 12.1065 1.7112 12.7196 0.964545C12.9829 0.644136 13.2709 0.34757 13.5704 0.0610824C13.6551 -0.0199404 13.7096 -0.0209098 13.7931 0.0614699C14.8206 1.07736 15.7344 2.16787 16.1368 3.59759C16.1499 3.64431 16.1585 3.69219 16.1682 3.73967C16.2381 4.08819 16.2753 4.09807 16.5558 3.89358C17.1466 3.46288 17.8247 3.23144 18.5271 3.06746C19.0778 2.93875 19.6316 2.82768 20.2046 2.86025C20.3994 2.87129 20.4934 2.9436 20.4943 3.14228C20.5048 4.99805 19.9363 6.63634 18.5797 7.9296C17.6727 8.7943 16.5686 9.31862 15.3227 9.53591C14.7782 9.63128 14.2354 9.70629 13.8472 9.68749Z" fill="url(#paint1_linear_857_2050)"/>
    <path d="M35.037 31.8008V12.6492H46.4692V16.2685H38.8166V20.8093H46.2555V24.4153H38.8166V31.8008H35.037ZM47.9661 31.8008V18.1249H51.4919V20.4754C51.8213 19.6029 52.3644 18.9485 53.1212 18.5122C53.878 18.0759 54.7194 17.8578 55.6454 17.8578V21.7843C55.4495 21.7576 55.2581 21.7442 55.0711 21.7442C54.2253 21.7531 53.4551 21.989 52.7606 22.452C51.9148 23.0219 51.4919 23.9612 51.4919 25.27V31.8008H47.9661ZM57.4628 30.0913C56.0738 28.6934 55.3793 26.984 55.3793 24.9628C55.3793 22.9417 56.0738 21.2322 57.4628 19.8344C58.8606 18.4365 60.5701 17.7376 62.5912 17.7376C64.6212 17.7376 66.3352 18.4365 67.733 19.8344C69.1398 21.2322 69.8432 22.9417 69.8432 24.9628C69.8432 26.984 69.1398 28.6934 67.733 30.0913C66.3352 31.4892 64.6212 32.1881 62.5912 32.1881C60.5701 32.1881 58.8606 31.4892 57.4628 30.0913ZM59.9469 22.2517C59.2524 22.964 58.9052 23.8677 58.9052 24.9628C58.9052 26.058 59.2524 26.9617 59.9469 27.674C60.6503 28.3863 61.5317 28.7424 62.5912 28.7424C63.6508 28.7424 64.5367 28.3863 65.2489 27.674C65.9612 26.9617 66.3174 26.058 66.3174 24.9628C66.3174 23.8677 65.9612 22.964 65.2489 22.2517C64.5367 21.5394 63.6508 21.1833 62.5912 21.1833C61.5317 21.1833 60.6503 21.5394 59.9469 22.2517ZM71.2332 31.8008V18.1249H74.759V19.6608C75.6138 18.3787 76.9716 17.7376 78.8324 17.7376C80.3282 17.7376 81.5614 18.2406 82.5318 19.2467C83.5112 20.2529 84.0009 21.6374 84.0009 23.4003V31.8008H80.4751V23.841C80.4751 22.9328 80.2258 22.2383 79.7272 21.7576C79.2375 21.2679 78.5831 21.023 77.764 21.023C76.8558 21.023 76.1257 21.3079 75.5737 21.8778C75.0306 22.4387 74.759 23.2845 74.759 24.4153V31.8008H71.2332ZM84.7499 21.5172V18.1249H87.1272V15.3603L90.653 14.2919V18.1249H93.7514V21.5172H90.653V27.2065C90.653 27.6784 90.7687 28.0257 91.0002 28.2483C91.2406 28.4619 91.5923 28.5821 92.0553 28.6089C92.2512 28.6178 92.4648 28.6267 92.6963 28.6356C93.008 28.6356 93.3597 28.6222 93.7514 28.5955V31.8008C93.0836 31.8809 92.4737 31.921 91.9217 31.921C90.4437 31.921 89.3441 31.6539 88.623 31.1197C87.6258 30.3896 87.1272 29.0852 87.1272 27.2065V21.5172H84.7499ZM110.533 32.1564C107.634 32.1564 105.236 31.199 103.34 29.2844C101.461 27.3698 100.522 25.0175 100.522 22.2277C100.522 19.4378 101.461 17.0855 103.34 15.1709C105.236 13.2563 107.634 12.299 110.533 12.299C112.284 12.299 113.888 12.7184 115.347 13.5572C116.824 14.3959 117.973 15.5265 118.793 16.9488L116.578 18.2343C116.031 17.1767 115.21 16.3379 114.116 15.7179C113.04 15.0797 111.846 14.7606 110.533 14.7606C108.327 14.7606 106.522 15.4718 105.117 16.8941C103.732 18.3164 103.039 20.0942 103.039 22.2277C103.039 24.3429 103.732 26.1116 105.117 27.5339C106.522 28.9562 108.327 29.6673 110.533 29.6673C111.846 29.6673 113.04 29.3574 114.116 28.7374C115.21 28.0992 116.031 27.2604 116.578 26.221L118.793 27.4792C117.991 28.9015 116.851 30.0412 115.374 30.8982C113.897 31.737 112.284 32.1564 110.533 32.1564ZM127.225 17.7693C128.829 17.7693 130.115 18.2799 131.081 19.301C132.048 20.3039 132.531 21.6715 132.531 23.4038V31.8008H130.151V23.5405C130.151 22.4282 129.851 21.5712 129.249 20.9695C128.647 20.3495 127.817 20.0395 126.76 20.0395C125.575 20.0395 124.617 20.4133 123.888 21.1609C123.158 21.8903 122.794 23.0209 122.794 24.5526V31.8008H120.414V12.6545H122.794V20.0942C123.76 18.5443 125.237 17.7693 127.225 17.7693ZM146.082 18.1249H148.462V31.8008H146.082V29.4485C144.897 31.2537 143.174 32.1564 140.913 32.1564C138.998 32.1564 137.366 31.4634 136.017 30.0776C134.668 28.6736 133.993 26.9686 133.993 24.9628C133.993 22.957 134.668 21.2612 136.017 19.8754C137.366 18.4714 138.998 17.7693 140.913 17.7693C143.174 17.7693 144.897 18.6719 146.082 20.4772V18.1249ZM141.214 29.8588C142.6 29.8588 143.758 29.3938 144.688 28.4639C145.618 27.5157 146.082 26.3487 146.082 24.9628C146.082 23.577 145.618 22.4191 144.688 21.4892C143.758 20.541 142.6 20.0669 141.214 20.0669C139.846 20.0669 138.698 20.541 137.768 21.4892C136.838 22.4191 136.373 23.577 136.373 24.9628C136.373 26.3487 136.838 27.5157 137.768 28.4639C138.698 29.3938 139.846 29.8588 141.214 29.8588ZM158.522 17.7693C160.437 17.7693 162.069 18.4714 163.418 19.8754C164.768 21.2612 165.442 22.957 165.442 24.9628C165.442 26.9686 164.768 28.6736 163.418 30.0776C162.069 31.4634 160.437 32.1564 158.522 32.1564C156.261 32.1564 154.538 31.2537 153.353 29.4485V37.2711H150.973V18.1249H153.353V20.4772C154.538 18.6719 156.261 17.7693 158.522 17.7693ZM158.222 29.8588C159.589 29.8588 160.738 29.3938 161.668 28.4639C162.598 27.5157 163.063 26.3487 163.063 24.9628C163.063 23.577 162.598 22.4191 161.668 21.4892C160.738 20.541 159.589 20.0669 158.222 20.0669C156.836 20.0669 155.678 20.541 154.748 21.4892C153.818 22.4191 153.353 23.577 153.353 24.9628C153.353 26.3487 153.818 27.5157 154.748 28.4639C155.678 29.3938 156.836 29.8588 158.222 29.8588ZM174.334 20.4224H170.696V27.8348C170.696 28.5095 170.824 28.9927 171.079 29.2844C171.352 29.5579 171.763 29.7038 172.31 29.722C172.857 29.722 173.531 29.7038 174.334 29.6673V31.8008C172.255 32.0743 170.732 31.9102 169.766 31.3084C168.799 30.6885 168.316 29.5306 168.316 27.8348V20.4224H165.608V18.1249H168.316V15.0068L170.696 14.2957V18.1249H174.334V20.4224ZM177.031 26.0569C177.268 27.2786 177.824 28.2268 178.699 28.9015C179.593 29.5762 180.687 29.9135 181.981 29.9135C183.787 29.9135 185.1 29.2479 185.92 27.9168L187.944 29.0656C186.613 31.1261 184.607 32.1564 181.927 32.1564C179.757 32.1564 177.988 31.4817 176.621 30.1323C175.271 28.7647 174.596 27.0416 174.596 24.9628C174.596 22.9023 175.262 21.1883 176.593 19.8207C177.924 18.4531 179.647 17.7693 181.763 17.7693C183.768 17.7693 185.4 18.4805 186.659 19.9028C187.935 21.3068 188.573 23.0026 188.573 24.9902C188.573 25.3366 188.546 25.6922 188.491 26.0569H177.031ZM181.763 20.0122C180.486 20.0122 179.429 20.3769 178.59 21.1062C177.751 21.8174 177.231 22.7747 177.031 23.9782H186.166C185.966 22.6835 185.455 21.6989 184.635 21.0242C183.814 20.3495 182.857 20.0122 181.763 20.0122ZM192.594 20.4224C193.378 18.7266 194.801 17.8787 196.861 17.8787V20.3677C195.694 20.313 194.691 20.623 193.852 21.2977C193.014 21.9724 192.594 23.0573 192.594 24.5526V31.8008H190.215V18.1249H192.594V20.4224Z" fill="#F9FAFB"/>
    <defs>
        <linearGradient id="paint0_linear_857_2050" x1="22.5928" y1="29.3815" x2="1.20256" y2="12.6697" gradientUnits="userSpaceOnUse">
            <stop stop-color="#FF8D27"/>
            <stop offset="1" stop-color="#E54404"/>
        </linearGradient>
        <linearGradient id="paint1_linear_857_2050" x1="6.84957" y1="4.08315" x2="15.8624" y2="13.1503" gradientUnits="userSpaceOnUse">
            <stop stop-color="#B8FF4D"/>
            <stop offset="1" stop-color="#63C000"/>
        </linearGradient>
    </defs>
</svg>
