<svg width="20" height="20" viewBox="0 0 20 20" fill="none" xmlns="http://www.w3.org/2000/svg">
<g id="Remix-icon-TimeLine">
<path id="Vector" d="M18.3334 17.5H1.66675V15.8333H2.50008V3.33333C2.50008 2.8731 2.87318 2.5 3.33341 2.5H15.0001C15.4603 2.5 15.8334 2.8731 15.8334 3.33333V7.5H17.5001V15.8333H18.3334V17.5ZM14.1667 15.8333H15.8334V9.16667H10.8334V15.8333H12.5001V10.8333H14.1667V15.8333ZM14.1667 7.5V4.16667H4.16675V15.8333H9.16675V7.5H14.1667ZM5.83341 9.16667H7.50008V10.8333H5.83341V9.16667ZM5.83341 12.5H7.50008V14.1667H5.83341V12.5ZM5.83341 5.83333H7.50008V7.5H5.83341V5.83333Z" fill="white"/>
</g>
</svg>
