<svg width="20" height="20" viewBox="0 0 20 20" fill="none" xmlns="http://www.w3.org/2000/svg">
<path d="M10.0002 2.50004C8.6195 2.50004 7.50023 3.61933 7.50023 5.00004V10C7.50023 11.3808 8.6195 12.5 10.0002 12.5C11.3809 12.5 12.5002 11.3808 12.5002 10V5.00004C12.5002 3.61933 11.3809 2.50004 10.0002 2.50004ZM10.0002 0.833374C12.3014 0.833374 14.1669 2.69886 14.1669 5.00004V10C14.1669 12.3012 12.3014 14.1667 10.0002 14.1667C7.69904 14.1667 5.83357 12.3012 5.83357 10V5.00004C5.83357 2.69886 7.69904 0.833374 10.0002 0.833374ZM1.82715 11.6346L3.46177 11.3077C4.06951 14.3635 6.7659 16.6667 10.0002 16.6667C13.2346 16.6667 15.9309 14.3635 16.5387 11.3077L18.1733 11.6346C17.4136 15.4544 14.0432 18.3334 10.0002 18.3334C5.95732 18.3334 2.58683 15.4544 1.82715 11.6346Z" fill="white"/>
</svg>
