<svg width="20" height="20" viewBox="0 0 20 20" fill="none" xmlns="http://www.w3.org/2000/svg">
<g id="Remix-icon-TimeLine" clip-path="url(#clip0_751_579)">
<path id="Vector" d="M8.84533 14.8297C8.56417 15.4735 7.67313 15.4735 7.392 14.8297L6.66063 13.1545C6.00976 11.6639 4.83824 10.4772 3.37692 9.82854L1.36382 8.93496C0.72378 8.65087 0.72378 7.71977 1.36382 7.43567L3.31404 6.56999C4.81294 5.90464 6.00547 4.67405 6.64522 3.13247L7.38608 1.34732C7.66099 0.684847 8.57633 0.684846 8.85125 1.34732L9.59208 3.13249C10.2318 4.67405 11.4243 5.90464 12.9232 6.56999L14.8735 7.43567C15.5135 7.71977 15.5135 8.65087 14.8735 8.93496L12.8604 9.82854C11.3991 10.4772 10.2276 11.6639 9.57667 13.1545L8.84533 14.8297ZM3.78297 8.18532C5.68783 9.03087 7.23668 10.4207 8.11865 12.333C9.00067 10.4207 10.5495 9.03087 12.4543 8.18532C10.5267 7.32968 8.973 5.8721 8.11866 3.92577C7.26432 5.87211 5.71056 7.32968 3.78297 8.18532ZM16.1678 18.9083L16.3735 18.4369C16.7402 17.5964 17.4006 16.9271 18.2246 16.561L18.8583 16.2795C19.201 16.1272 19.201 15.6291 18.8583 15.4769L18.2601 15.211C17.4148 14.8355 16.7426 14.1415 16.3822 13.2725L16.171 12.763C16.0237 12.408 15.5329 12.408 15.3857 12.763L15.1745 13.2725C14.8142 14.1415 14.1419 14.8355 13.2967 15.211L12.6984 15.4769C12.3557 15.6291 12.3557 16.1272 12.6984 16.2795L13.3321 16.561C14.1562 16.9271 14.8165 17.5964 15.1832 18.4369L15.3889 18.9083C15.5394 19.2534 16.0173 19.2534 16.1678 18.9083ZM15.3121 15.8725L15.7808 15.407L16.2398 15.8725L15.7808 16.3249L15.3121 15.8725Z" fill="white"/>
</g>
<defs>
<clipPath id="clip0_751_579">
<rect width="20" height="20" fill="white"/>
</clipPath>
</defs>
</svg>
