<svg width="31" height="31" viewBox="0 0 31 31" fill="none" xmlns="http://www.w3.org/2000/svg">
<path d="M13.595 23.4691C13.1311 24.5314 11.6609 24.5314 11.197 23.4691L9.99028 20.705C8.91634 18.2454 6.98334 16.2874 4.57216 15.2171L1.25054 13.7427C0.19448 13.274 0.194482 11.7377 1.25054 11.2689L4.46841 9.84054C6.9416 8.74271 8.90928 6.71224 9.96486 4.16864L11.1873 1.22313C11.6409 0.130053 13.1512 0.13005 13.6048 1.22313L14.8272 4.16867C15.8828 6.71224 17.8504 8.74271 20.3236 9.84054L23.5415 11.2689C24.5975 11.7377 24.5975 13.274 23.5415 13.7427L20.2199 15.2171C17.8087 16.2874 15.8758 18.2454 14.8017 20.705L13.595 23.4691ZM5.24214 12.5058C8.38517 13.901 10.9408 16.1942 12.396 19.3496C13.8513 16.1942 16.4069 13.901 19.5499 12.5058C16.3694 11.094 13.8057 8.68902 12.396 5.47758C10.9864 8.68903 8.42266 11.094 5.24214 12.5058ZM25.6772 30.1987L26.0165 29.4209C26.6215 28.0341 27.7112 26.9298 29.0708 26.3258L30.1164 25.8612C30.6819 25.6099 30.6819 24.7881 30.1164 24.5369L29.1294 24.0983C27.7347 23.4787 26.6255 22.3336 26.0308 20.8996L25.6824 20.0591C25.4394 19.4733 24.6296 19.4733 24.3866 20.0591L24.0382 20.8996C23.4436 22.3336 22.3344 23.4787 20.9397 24.0983L19.9526 24.5369C19.3872 24.7881 19.3872 25.6099 19.9526 25.8612L20.9982 26.3258C22.3579 26.9298 23.4475 28.0341 24.0525 29.4209L24.392 30.1987C24.6403 30.7681 25.4287 30.7681 25.6772 30.1987ZM24.2652 25.1896L25.0386 24.4215L25.796 25.1896L25.0386 25.9361L24.2652 25.1896Z" fill="#A1A1AA"/>
</svg>
