<svg width="64" height="64" viewBox="0 0 64 65" fill="none" xmlns="http://www.w3.org/2000/svg">
<g clip-path="url(#clip0_396_6560)">
<path d="M12.1602 22.5187C12.1602 22.38 12.177 22.2408 12.2224 22.1097C12.6512 20.8725 13.6679 20.4014 14.8956 20.1642C15.6766 20.0134 16.4575 20.0146 17.2428 20.0149C27.512 20.0193 37.7809 20.0177 48.0501 20.0378C49.2104 20.04 50.3695 20.1651 51.3895 20.827C52.2016 21.3541 52.6108 22.2955 52.2182 23.3213C51.6704 24.7527 51.0215 26.1407 50.4037 27.5422C49.9219 28.6346 49.4257 29.7207 48.9544 30.8174C48.3159 32.3028 47.1396 32.9731 45.5854 32.9832C41.9339 33.0073 38.2824 32.9909 34.6309 32.9909C34.2759 32.9909 33.9483 33.068 33.7577 33.3978C33.5998 33.6707 33.659 33.9548 33.8077 34.2157C33.9375 34.444 34.1716 34.5507 34.3974 34.6503C35.4649 35.1213 36.5666 35.5077 37.6297 35.9916C39.3002 36.752 40.9935 37.4641 42.5431 38.4631C43.344 38.9797 43.8816 39.6938 44.1315 40.6175C44.29 41.2044 44.2336 41.7843 43.9973 42.3321C43.0723 44.4766 42.1344 46.6156 41.1958 48.7542C40.6551 49.9864 39.6472 50.6002 38.378 50.8753C36.9321 51.1887 35.4695 50.9604 34.0162 51.0302C33.832 51.0391 33.647 51.0326 33.4626 51.0314C32.3865 51.0243 32.1301 51.6791 32.5798 52.5637C32.97 53.331 33.4221 54.0673 33.8558 54.8121C34.5371 55.9823 35.1746 57.1682 35.5506 58.4831C36.0355 60.1804 35.8739 61.7632 34.7598 63.1724C33.7991 64.3873 32.0413 64.9365 30.7496 64.0952C30.0316 63.6273 29.6124 62.9285 29.2673 62.2006C28.4888 60.5585 27.7649 58.8905 27.0357 57.2256C25.9227 54.6832 24.9119 52.0939 23.7605 49.5715C21.4368 44.4806 19.2062 39.3489 17.0204 34.1997C15.5045 30.6284 13.8624 27.1125 12.4048 23.5172C12.3413 23.3608 12.2907 23.1994 12.2406 23.0376C12.1884 22.8695 12.1602 22.6947 12.1602 22.5187Z" fill="url(#paint0_linear_396_6560)"/>
<path d="M33.2829 15.9148C30.4762 15.9268 28.1266 15.3171 26.0413 13.8008C24.248 12.4968 23.1753 10.7189 22.5819 8.62442C22.2972 7.61955 22.1125 6.59617 22.1754 5.53949C22.1945 5.2178 22.2988 5.04724 22.6414 5.05556C24.8155 5.10707 26.874 5.54596 28.6592 6.87284C28.8575 7.02026 28.9032 6.92835 28.9501 6.78185C29.0367 6.51167 29.1003 6.23408 29.1826 5.96235C29.6363 4.46831 30.5132 3.22287 31.4887 2.03479C31.9076 1.52495 32.3659 1.05306 32.8425 0.597195C32.9773 0.468271 33.0639 0.466728 33.1968 0.597811C34.8318 2.2143 36.2858 3.94953 36.9261 6.22452C36.947 6.29885 36.9606 6.37503 36.976 6.4506C37.0874 7.00515 37.1466 7.0209 37.5929 6.69549C38.533 6.01016 39.6119 5.64189 40.7296 5.38096C41.6059 5.17616 42.4871 4.99943 43.3988 5.05124C43.7088 5.06883 43.8584 5.18387 43.8599 5.50001C43.8766 8.45296 42.9719 11.0598 40.8132 13.1177C39.3701 14.4935 37.6133 15.3278 35.6307 15.6736C34.7643 15.8254 33.9007 15.9447 33.2829 15.9148Z" fill="url(#paint1_linear_396_6560)"/>
</g>
<defs>
<linearGradient id="paint0_linear_396_6560" x1="47.1986" y1="47.2514" x2="13.1623" y2="20.6594" gradientUnits="userSpaceOnUse">
<stop stop-color="#FF8D27"/>
<stop offset="1" stop-color="#E54404"/>
</linearGradient>
<linearGradient id="paint1_linear_396_6560" x1="22.1483" y1="6.99715" x2="36.4896" y2="21.4249" gradientUnits="userSpaceOnUse">
<stop stop-color="#B8FF4D"/>
<stop offset="1" stop-color="#63C000"/>
</linearGradient>
<clipPath id="clip0_396_6560">
<rect width="64" height="64" fill="white" transform="translate(0 0.5)"/>
</clipPath>
</defs>
</svg>
