<svg width="48" height="48" viewBox="0 0 48 48" fill="none" xmlns="http://www.w3.org/2000/svg">
<g clip-path="url(#clip0_156_4598)">
<path d="M9.12012 16.514C9.12012 16.41 9.13274 16.3056 9.16682 16.2073C9.48842 15.2794 10.2509 14.926 11.1717 14.7482C11.7574 14.635 12.3431 14.636 12.9321 14.6362C20.634 14.6395 28.3357 14.6383 36.0376 14.6533C36.9078 14.655 37.7771 14.7489 38.5421 15.2453C39.1512 15.6406 39.4581 16.3466 39.1637 17.116C38.7528 18.1895 38.2661 19.2305 37.8028 20.2817C37.4415 21.101 37.0693 21.9155 36.7158 22.7381C36.2369 23.8521 35.3547 24.3548 34.1891 24.3624C31.4504 24.3805 28.7118 24.3682 25.9732 24.3682C25.7069 24.3682 25.4612 24.426 25.3183 24.6733C25.1998 24.8781 25.2443 25.0911 25.3558 25.2868C25.4531 25.458 25.6287 25.538 25.7981 25.6127C26.5986 25.966 27.425 26.2558 28.2223 26.6187C29.4751 27.189 30.7451 27.7231 31.9073 28.4723C32.508 28.8598 32.9112 29.3953 33.0986 30.0881C33.2175 30.5283 33.1752 30.9632 32.998 31.374C32.3043 32.9825 31.6008 34.5867 30.8969 36.1906C30.4914 37.1148 29.7354 37.5752 28.7835 37.7815C27.699 38.0165 26.6021 37.8453 25.5121 37.8976C25.374 37.9043 25.2353 37.8994 25.0969 37.8985C24.2898 37.8932 24.0976 38.3843 24.4349 39.0478C24.7275 39.6233 25.0666 40.1755 25.3918 40.7341C25.9028 41.6117 26.381 42.5012 26.663 43.4873C27.0266 44.7603 26.9054 45.9474 26.0699 47.0043C25.3493 47.9155 24.031 48.3273 23.0622 47.6964C22.5237 47.3455 22.2093 46.8214 21.9505 46.2754C21.3666 45.0439 20.8237 43.7929 20.2768 42.5442C19.442 40.6374 18.6839 38.6954 17.8204 36.8037C16.0776 32.9854 14.4047 29.1367 12.7653 25.2748C11.6284 22.5963 10.3968 19.9594 9.30357 17.2629C9.25601 17.1456 9.21804 17.0245 9.18045 16.9032C9.14133 16.7771 9.12017 16.646 9.12012 16.514Z" fill="url(#paint0_linear_156_4598)"/>
<path d="M24.9619 11.5611C22.8569 11.5701 21.0947 11.1128 19.5307 9.9756C18.1858 8.9976 17.3813 7.66421 16.9362 6.09331C16.7226 5.33966 16.5841 4.57213 16.6313 3.77962C16.6457 3.53835 16.7238 3.41043 16.9808 3.41667C18.6114 3.4553 20.1553 3.78447 21.4942 4.77963C21.6429 4.89019 21.6772 4.82126 21.7123 4.71139C21.7773 4.50875 21.8249 4.30056 21.8867 4.09676C22.227 2.97624 22.8846 2.04215 23.6163 1.15109C23.9305 0.768715 24.2742 0.414792 24.6316 0.0728962C24.7327 -0.023797 24.7977 -0.0249539 24.8974 0.0733584C26.1236 1.28572 27.2141 2.58715 27.6943 4.29339C27.71 4.34914 27.7202 4.40628 27.7318 4.46295C27.8153 4.87886 27.8597 4.89067 28.1945 4.64662C28.8995 4.13262 29.7087 3.85642 30.547 3.66072C31.2042 3.50712 31.8651 3.37457 32.5489 3.41343C32.7813 3.42662 32.8936 3.5129 32.8947 3.75001C32.9072 5.96472 32.2287 7.91986 30.6097 9.46325C29.5273 10.4952 28.2097 11.1209 26.7228 11.3802C26.073 11.494 25.4253 11.5836 24.9619 11.5611Z" fill="url(#paint1_linear_156_4598)"/>
</g>
<defs>
<linearGradient id="paint0_linear_156_4598" x1="35.3989" y1="35.0636" x2="9.8717" y2="15.1196" gradientUnits="userSpaceOnUse">
<stop stop-color="#FF8D27"/>
<stop offset="1" stop-color="#E54404"/>
</linearGradient>
<linearGradient id="paint1_linear_156_4598" x1="16.611" y1="4.87286" x2="27.3669" y2="15.6936" gradientUnits="userSpaceOnUse">
<stop stop-color="#B8FF4D"/>
<stop offset="1" stop-color="#63C000"/>
</linearGradient>
<clipPath id="clip0_156_4598">
<rect width="48" height="48" fill="white"/>
</clipPath>
</defs>
</svg>
