<svg width="721" height="206" viewBox="0 0 721 206" fill="none" xmlns="http://www.w3.org/2000/svg">
<path d="M721 33C721 33 678.52 70.311 644.841 78C620.209 83.6235 604.239 70.3982 580.144 78C533.257 92.7924 488.222 147.742 504.987 179C513.218 194.345 525.142 203 542.566 203C559.989 203 571.913 194.345 580.144 179C596.91 147.742 554.11 75.9556 504.987 78C490.906 78.586 484.394 88.5513 470.311 88C438.805 86.7667 410.543 52.872 415.196 29C418.027 14.4776 428.47 3 442.754 3C457.038 3 467.48 14.4776 470.311 29C474.965 52.872 446.042 81.4682 415.196 88C404.054 90.3595 396.751 84.1509 386.031 88C369.829 93.8178 351.979 111.338 357.973 122C361.06 127.492 365.692 130 372.002 130C378.312 130 382.944 127.492 386.031 122C392.025 111.338 371.226 98.9872 357.973 88C316.983 54.0184 222 78 222 78L1 128" stroke="url(#paint0_linear_396_6777)" stroke-width="6"/>
<defs>
<linearGradient id="paint0_linear_396_6777" x1="0.747959" y1="143.374" x2="378.039" y2="-216.483" gradientUnits="userSpaceOnUse">
<stop offset="0.164725" stop-color="#FF802E" stop-opacity="0"/>
<stop offset="0.426466" stop-color="#FF802E" stop-opacity="0.225"/>
<stop offset="1" stop-color="#FF802E"/>
</linearGradient>
</defs>
</svg>
